<svg xmlns="http://www.w3.org/2000/svg" width="36.358" height="36.358" viewBox="0 0 36.358 36.358">
  <path d="M36.183,29.242a5.689,5.689,0,0,0-5.317-4.28c-.059,0-.118,0-.176,0v0c-3.09-.013-4.371-1.293-4.367-4.37h0a8.516,8.516,0,0,0-.1-5.126c.091-2.892,1.4-4.092,4.4-4.079l0,0a5.691,5.691,0,1,0-5.661-5.888c0,.059,0,.118,0,.176h0c-.013,3.09-1.293,4.371-4.37,4.367h0a8.45,8.45,0,0,0-4.195-.157,8.624,8.624,0,0,0-.931.256c-2.892-.091-4.092-1.4-4.079-4.4l0,0A5.691,5.691,0,1,0,5.492,11.4h.176v0c3.09.013,4.371,1.293,4.367,4.37h0a8.516,8.516,0,0,0,.1,5.126c-.091,2.892-1.4,4.092-4.4,4.079l0,0A5.691,5.691,0,1,0,11.4,30.866c0-.059,0-.118,0-.176h0c.013-3.09,1.293-4.371,4.37-4.367h0a8.516,8.516,0,0,0,5.126-.1c2.892.091,4.092,1.4,4.079,4.4l0,0a5.69,5.69,0,1,0,11.2-1.381Z" fill="#fff"/>
</svg>
